<svg xmlns="http://www.w3.org/2000/svg" width="30" height="24.489" viewBox="0 0 30 24.489"><defs><style>.a{fill:#fff;}</style></defs><g transform="translate(0 -36.648)"><g transform="translate(0 36.648)"><g transform="translate(0 0)"><path class="a" d="M60.752,207.945a3.791,3.791,0,0,1-3.827,0l-8.662-5.455s-.782-.492-.782.623v5.447c0,2.87,5.085,5.963,11.357,5.963S70.2,211.429,70.2,208.559v-5.754c0-.895-.556-.458-.556-.458Z" transform="translate(-43.839 -190.034)"/><path class="a" d="M29.5,45.013a.8.8,0,0,0,0-1.48l-13.28-6.58a2.582,2.582,0,0,0-2.436,0L.5,43.533a.8.8,0,0,0,0,1.48l13.28,8.07a2.582,2.582,0,0,0,2.436,0" transform="translate(0 -36.648)"/><path class="a" d="M358.057,195.174V186s.006-.435-.252-.291a7.5,7.5,0,0,0-.893.553.77.77,0,0,0-.16.582v8.334a.245.245,0,0,1-.15.2,1.586,1.586,0,1,0,1.6,0A.236.236,0,0,1,358.057,195.174Z" transform="translate(-329.13 -174.74)"/></g></g></g></svg>