<svg xmlns="http://www.w3.org/2000/svg" width="51.929" height="53.748" viewBox="0 0 51.929 53.748"><defs><style>.a{fill:#ea8c00;}.b{fill:#fab32b;}.c{fill:#fdb62d;}</style></defs><path class="a" d="M-494.929,431.049a12.287,12.287,0,0,1,6.345,1.224,13.028,13.028,0,0,1,6.4,7.848q.028,10.1.056,20.2a21.168,21.168,0,0,0,2.5,5.343c.8,1.224,2.176,3.021,2.5,2.838.19-.106-.1-.806-.278-1.67a10,10,0,0,1,.556-5.733,8.349,8.349,0,0,1,4.508-4.007,9.053,9.053,0,0,1,7.18.223,8.9,8.9,0,0,1,4.23,4.564,9.965,9.965,0,0,1,.334,6.011c-1.649,8.127-14.1,15.437-15.028,15.974a24.6,24.6,0,0,1-8.07-3.562c-8.546-5.831-10.565-15.372-11.02-17.922Q-494.818,446.717-494.929,431.049Z" transform="translate(494.929 -430.497)"/><path class="b" d="M-494.929,431.049a10.149,10.149,0,0,1,5.727,1.224c4.225,2.335,5.541,6.96,5.777,7.848q.025,10.1.05,20.2a22.246,22.246,0,0,0,2.261,5.343c.726,1.224,1.964,3.021,2.261,2.838.172-.106-.086-.806-.251-1.67a11.017,11.017,0,0,1,.5-5.733,7.779,7.779,0,0,1,4.069-4.007,7.446,7.446,0,0,1,6.48.223,8.691,8.691,0,0,1,3.818,4.564,10.987,10.987,0,0,1,.3,6.011c-1.488,8.127-12.722,15.437-13.563,15.974a21.156,21.156,0,0,1-7.284-3.562c-7.713-5.831-9.535-15.372-9.946-17.922Q-494.828,446.717-494.929,431.049Z" transform="translate(494.929 -431.017)"/><path class="a" d="M-375.9,430.241q-.111,14.749-.223,29.5c-.13,1.627-1.12,11.859-10.13,18.7a26.393,26.393,0,0,1-18.033,5.121c3.665-2.473,13.082-9.58,15.028-21.261a26.265,26.265,0,0,0,.334-5.343l.222-17.811a12.751,12.751,0,0,1,4.119-6.122A12.968,12.968,0,0,1-375.9,430.241Z" transform="translate(427.829 -429.912)"/><path class="c" d="M-379.389,430.241q-.1,14.749-.2,29.5c-.114,1.627-.982,11.859-8.885,18.7a21.015,21.015,0,0,1-15.817,5.121c3.214-2.473,11.474-9.58,13.181-21.261a29.888,29.888,0,0,0,.293-5.343l.2-17.811A13.058,13.058,0,0,1-387,433.024,10.4,10.4,0,0,1-379.389,430.241Z" transform="translate(431.318 -430.171)"/></svg>