<svg xmlns="http://www.w3.org/2000/svg" xmlns:xlink="http://www.w3.org/1999/xlink" width="665.426" height="948.092" viewBox="0 0 665.426 948.092"><defs><style>.a{fill:url(#a);}.b{fill:#f8c360;}.c{fill:#f74e2e;}.d{fill:url(#b);}.e{fill:url(#c);}.f{fill:url(#d);}.g{fill:url(#e);}.h{fill:url(#f);}.i{fill:url(#g);}.j{fill:url(#h);}.k{fill:url(#i);}.l{fill:url(#j);}.m{fill:url(#k);}.n{fill:url(#l);}.o{fill:url(#m);}.p{fill:url(#n);}.q{fill:url(#o);}.r{fill:url(#p);}.s{fill:url(#q);}.t{fill:url(#r);}.u{fill:url(#s);}.v{fill:url(#t);}.w{fill:url(#u);}.x{fill:url(#v);}.y{fill:url(#w);}.z{fill:url(#x);}.aa{fill:url(#y);}.ab{fill:url(#z);}.ac{fill:url(#aa);}.ad{fill:url(#ab);}.ae{fill:url(#ac);}.af{fill:url(#ad);}.ag{fill:url(#ae);}.ah{fill:url(#af);}.ai{fill:url(#ag);}.aj{fill:url(#ah);}.ak{fill:url(#ai);}.al{fill:#fff;}.am{fill:url(#aj);}.an{fill:#f4edf7;}.ao{isolation:isolate;}.ap{fill:#007e65;}.aq{fill:#25d468;opacity:0.603;}.ar{fill:#ffa700;}</style><linearGradient id="a" x1="0.349" y1="0.934" x2="0.349" y2="-0.012" gradientUnits="objectBoundingBox"><stop offset="0" stop-color="#d58b00"/><stop offset="1" stop-color="#ffce72"/></linearGradient><linearGradient id="b" x1="595.303" y1="-155.831" x2="595.303" y2="-154.591" gradientUnits="objectBoundingBox"><stop offset="0" stop-color="#4e3c4c"/><stop offset="1" stop-color="#684566"/></linearGradient><linearGradient id="c" x1="817.446" y1="-213.893" x2="817.446" y2="-212.942" xlink:href="#b"/><linearGradient id="d" x1="1343.032" y1="-351.533" x2="1343.032" y2="-350.556" xlink:href="#b"/><linearGradient id="e" x1="2079.587" y1="-544.168" x2="2079.587" y2="-543.481" xlink:href="#b"/><linearGradient id="f" x1="595.303" y1="22.38" x2="595.303" y2="23.619" xlink:href="#b"/><linearGradient id="g" x1="817.446" y1="28.172" x2="817.446" y2="29.123" xlink:href="#b"/><linearGradient id="h" x1="1343.032" y1="42.8" x2="1343.032" y2="43.776" xlink:href="#b"/><linearGradient id="i" x1="2079.587" y1="62.643" x2="2079.587" y2="63.332" xlink:href="#b"/><linearGradient id="j" x1="428.654" y1="-155.831" x2="428.654" y2="-154.591" xlink:href="#b"/><linearGradient id="k" x1="591.254" y1="-213.893" x2="591.254" y2="-212.942" xlink:href="#b"/><linearGradient id="l" x1="973.672" y1="-351.533" x2="973.672" y2="-350.556" xlink:href="#b"/><linearGradient id="m" x1="1514.999" y1="-544.763" x2="1514.999" y2="-544.075" xlink:href="#b"/><linearGradient id="n" x1="428.654" y1="22.38" x2="428.654" y2="23.619" xlink:href="#b"/><linearGradient id="o" x1="591.254" y1="28.172" x2="591.254" y2="29.123" xlink:href="#b"/><linearGradient id="p" x1="973.672" y1="42.8" x2="973.672" y2="43.776" xlink:href="#b"/><linearGradient id="q" x1="1514.999" y1="62.598" x2="1514.999" y2="63.286" xlink:href="#b"/><linearGradient id="r" x1="10.999" y1="63.666" x2="9.821" y2="63.666" xlink:href="#b"/><linearGradient id="s" x1="514.659" y1="-183.855" x2="514.659" y2="-182.615" xlink:href="#b"/><linearGradient id="t" x1="705.952" y1="-253.67" x2="705.952" y2="-252.719" xlink:href="#b"/><linearGradient id="u" x1="1159.721" y1="-418.88" x2="1159.721" y2="-417.903" xlink:href="#b"/><linearGradient id="v" x1="1795.152" y1="-650.553" x2="1795.152" y2="-649.866" xlink:href="#b"/><linearGradient id="w" x1="508.197" y1="56.998" x2="508.197" y2="58.238" xlink:href="#b"/><linearGradient id="x" x1="698.978" y1="75.147" x2="698.978" y2="76.098" xlink:href="#b"/><linearGradient id="y" x1="1150.191" y1="119.247" x2="1150.191" y2="120.224" xlink:href="#b"/><linearGradient id="z" x1="1784.065" y1="180.211" x2="1784.065" y2="180.898" xlink:href="#b"/><linearGradient id="aa" x1="515.849" y1="-190.356" x2="515.849" y2="-189.117" xlink:href="#b"/><linearGradient id="ab" x1="709.493" y1="-260.69" x2="709.493" y2="-259.739" xlink:href="#b"/><linearGradient id="ac" x1="1168.37" y1="-428.069" x2="1168.37" y2="-427.092" xlink:href="#b"/><linearGradient id="ad" x1="1811.986" y1="-662.21" x2="1811.986" y2="-661.522" xlink:href="#b"/><linearGradient id="ae" x1="509.385" y1="50.497" x2="509.385" y2="51.737" xlink:href="#b"/><linearGradient id="af" x1="702.519" y1="68.127" x2="702.519" y2="69.078" xlink:href="#b"/><linearGradient id="ag" x1="1158.487" y1="110.186" x2="1158.487" y2="111.163" xlink:href="#b"/><linearGradient id="ah" x1="1799.708" y1="169.21" x2="1799.708" y2="169.899" xlink:href="#b"/><linearGradient id="ai" x1="56.023" y1="81.483" x2="54.844" y2="81.483" xlink:href="#b"/><linearGradient id="aj" x1="-0.271" y1="0.212" x2="1.658" y2="0.212" gradientUnits="objectBoundingBox"><stop offset="0" stop-color="#ffa700"/><stop offset="1" stop-color="#ffd689"/></linearGradient></defs><g transform="translate(59.145 22.531)"><g transform="translate(313.708 -15.238) rotate(90)"><path class="a" d="M118.857,0,59.429,85.413,0,0Z" transform="translate(0)"/><path class="b" d="M27.753,0,13.877,19.779,0,0Z" transform="translate(45.057 99.868)"/><path class="b" d="M18.885,0,9.443,13.459,0,0Z" transform="translate(49.432 136.027)"/><path class="c" d="M49.222,0,24.611,35.08,0,0Z" transform="translate(35.263 19.852)"/></g><g transform="translate(59.928 -22.531) rotate(90)"><rect class="c" width="119.196" height="119.073" rx="59.536" transform="translate(0 0)"/><g transform="translate(17.875 17.163)"><g transform="translate(11.604 11.746)"><g transform="translate(0 0)"><g transform="translate(0 44.123)"><path class="d" d="M6.147,3.075A3.074,3.074,0,1,1,3.072,0,3.074,3.074,0,0,1,6.147,3.075Z" transform="translate(0 12.108)"/><path class="e" d="M4.476,2.236A2.238,2.238,0,1,1,2.236,0,2.239,2.239,0,0,1,4.476,2.236Z" transform="translate(6.874 6.906)"/><path class="f" d="M2.724,1.362A1.362,1.362,0,1,1,1.362,0,1.36,1.36,0,0,1,2.724,1.362Z" transform="translate(12.518 3.011)"/><path class="g" d="M1.759.878A.879.879,0,1,1,.878,0,.88.88,0,0,1,1.759.878Z" transform="translate(16.497 0)"/></g><g transform="translate(0 0)"><path class="h" d="M6.147,3.075A3.074,3.074,0,1,0,3.072,6.151,3.077,3.077,0,0,0,6.147,3.075Z" transform="translate(0 0)"/><path class="i" d="M4.476,2.24a2.238,2.238,0,1,0-2.24,2.24A2.241,2.241,0,0,0,4.476,2.24Z" transform="translate(6.874 6.874)"/><path class="j" d="M2.724,1.362A1.362,1.362,0,1,0,1.362,2.724,1.362,1.362,0,0,0,2.724,1.362Z" transform="translate(12.518 12.521)"/><path class="k" d="M1.759.878a.879.879,0,1,0-.881.878A.879.879,0,0,0,1.759.878Z" transform="translate(16.497 16.5)"/></g><g transform="translate(44.415 44.124)"><path class="l" d="M0,3.075A3.074,3.074,0,1,0,3.075,0,3.074,3.074,0,0,0,0,3.075Z" transform="translate(12.107 12.107)"/><path class="m" d="M0,2.236A2.238,2.238,0,1,0,2.24,0,2.237,2.237,0,0,0,0,2.236Z" transform="translate(6.905 6.905)"/><path class="n" d="M0,1.362A1.363,1.363,0,1,0,1.362,0,1.36,1.36,0,0,0,0,1.362Z" transform="translate(3.01 3.01)"/><circle class="o" cx="0.878" cy="0.878" r="0.878" transform="translate(0 0)"/></g><g transform="translate(44.415 0)"><path class="p" d="M0,3.075A3.074,3.074,0,1,1,3.075,6.151,3.077,3.077,0,0,1,0,3.075Z" transform="translate(12.107 0)"/><path class="q" d="M0,2.24a2.238,2.238,0,1,1,2.24,2.24A2.239,2.239,0,0,1,0,2.24Z" transform="translate(6.905 6.874)"/><path class="r" d="M0,1.362A1.363,1.363,0,1,1,1.362,2.724,1.362,1.362,0,0,1,0,1.362Z" transform="translate(3.01 12.521)"/><circle class="s" cx="0.878" cy="0.878" r="0.878" transform="translate(0 16.499)"/></g></g><g transform="translate(25.558 25.5)"><path class="t" d="M0,5.641a5.639,5.639,0,1,1,5.641,5.638A5.642,5.642,0,0,1,0,5.641Z" transform="translate(0 0)"/></g></g><g transform="translate(0 0)"><g transform="translate(0 39.759)"><circle class="u" cx="3.074" cy="3.074" r="3.074" transform="translate(0 0)"/><circle class="v" cx="2.239" cy="2.239" r="2.239" transform="translate(9.375 0.835)"/><path class="w" d="M2.326,2.326A1.362,1.362,0,1,1,2.326.4,1.367,1.367,0,0,1,2.326,2.326Z" transform="translate(16.997 1.712)"/><path class="x" d="M1.5,1.5A.879.879,0,1,1,1.5.259.88.88,0,0,1,1.5,1.5Z" transform="translate(22.422 2.195)"/></g><g transform="translate(39.76)"><path class="y" d="M5.247,5.247a3.074,3.074,0,1,0-4.347,0A3.074,3.074,0,0,0,5.247,5.247Z" transform="translate(0 0)"/><circle class="z" cx="2.239" cy="2.239" r="2.239" transform="translate(0.836 9.373)"/><circle class="aa" cx="1.362" cy="1.362" r="1.362" transform="translate(1.713 16.995)"/><path class="ab" d="M1.5,1.5a.879.879,0,1,0-1.242,0A.875.875,0,0,0,1.5,1.5Z" transform="translate(2.196 22.421)"/></g><g transform="translate(39.968 61.695)"><circle class="ac" cx="3.074" cy="3.074" r="3.074" transform="translate(0 18.032)"/><circle class="ad" cx="2.239" cy="2.239" r="2.239" transform="translate(0.835 10.328)"/><path class="ae" d="M.4.4A1.36,1.36,0,1,0,2.323.4,1.358,1.358,0,0,0,.4.4Z" transform="translate(1.712 4.46)"/><circle class="af" cx="0.878" cy="0.878" r="0.878" transform="translate(2.195 0)"/></g><g transform="translate(61.696 39.967)"><path class="ag" d="M.9.9a3.074,3.074,0,1,1,0,4.347A3.073,3.073,0,0,1,.9.9Z" transform="translate(18.033 0)"/><circle class="ah" cx="2.239" cy="2.239" r="2.239" transform="translate(10.328 0.835)"/><circle class="ai" cx="1.362" cy="1.362" r="1.362" transform="translate(4.459 1.711)"/><path class="aj" d="M.259.257a.879.879,0,1,1,0,1.242A.88.88,0,0,1,.259.257Z" transform="translate(0 2.196)"/></g><g transform="translate(37.238 37.165)"><path class="ak" d="M1.651,1.653a5.64,5.64,0,1,1,0,7.974A5.639,5.639,0,0,1,1.651,1.653Z" transform="translate(0 0)"/></g></g></g></g><g transform="translate(462.85 235.415) rotate(90)"><g transform="translate(10.139 8.423)"><g transform="translate(13.672 13.499)"><g transform="translate(0)"><g transform="translate(51.337 51.682)"><path class="al" d="M3.578,0A3.577,3.577,0,1,1,0,3.575,3.574,3.574,0,0,1,3.578,0Z" transform="translate(14.088 14.088)"/><path class="al" d="M2.606,0A2.6,2.6,0,1,1,0,2.6,2.6,2.6,0,0,1,2.606,0Z" transform="translate(8.035 8.035)"/><path class="al" d="M1.588,0A1.585,1.585,0,1,1,0,1.585,1.585,1.585,0,0,1,1.588,0Z" transform="translate(3.503 3.503)"/><path class="al" d="M1.025,0A1.021,1.021,0,1,1,0,1.021,1.022,1.022,0,0,1,1.025,0Z" transform="translate(0 0)"/></g><g transform="translate(0 51.682)"><path class="al" d="M3.575,0A3.577,3.577,0,1,0,7.153,3.575,3.574,3.574,0,0,0,3.575,0Z" transform="translate(0 14.088)"/><path class="al" d="M2.6,0A2.6,2.6,0,1,0,5.208,2.6,2.6,2.6,0,0,0,2.6,0Z" transform="translate(7.998 8.035)"/><path class="al" d="M1.584,0A1.585,1.585,0,1,0,3.169,1.585,1.585,1.585,0,0,0,1.584,0Z" transform="translate(14.565 3.503)"/><circle class="al" cx="1.022" cy="1.022" r="1.022" transform="translate(19.195 0)"/></g><g transform="translate(51.337 0)"><path class="al" d="M3.578,7.153A3.577,3.577,0,1,0,0,3.578,3.574,3.574,0,0,0,3.578,7.153Z" transform="translate(14.088)"/><path class="al" d="M2.606,5.212A2.606,2.606,0,1,0,0,2.606,2.6,2.6,0,0,0,2.606,5.212Z" transform="translate(8.035 7.998)"/><path class="al" d="M1.588,3.169A1.585,1.585,0,1,0,0,1.585,1.585,1.585,0,0,0,1.588,3.169Z" transform="translate(3.503 14.569)"/><path class="al" d="M1.025,2.043A1.021,1.021,0,1,0,0,1.021,1.022,1.022,0,0,0,1.025,2.043Z" transform="translate(0 19.199)"/></g><g transform="translate(0 0)"><path class="al" d="M3.575,7.153A3.577,3.577,0,1,1,7.153,3.578,3.574,3.574,0,0,1,3.575,7.153Z" transform="translate(0 0)"/><path class="al" d="M2.6,5.212A2.606,2.606,0,1,1,5.208,2.606,2.6,2.6,0,0,1,2.6,5.212Z" transform="translate(7.998 7.998)"/><path class="al" d="M1.584,3.169A1.585,1.585,0,1,1,3.169,1.585,1.585,1.585,0,0,1,1.584,3.169Z" transform="translate(14.565 14.569)"/><circle class="al" cx="1.022" cy="1.022" r="1.022" transform="translate(19.195 19.198)"/></g></g><g transform="translate(29.667 30.058)"><path class="al" d="M6.564,13.123a6.562,6.562,0,1,1,6.564-6.56A6.562,6.562,0,0,1,6.564,13.123Z"/></g></g><g transform="translate(0)"><g transform="translate(0)"><g transform="translate(46.263 71.788)"><circle class="al" cx="3.577" cy="3.577" r="3.577" transform="translate(0 20.981)"/><path class="al" d="M4.447.763a2.6,2.6,0,1,1-3.684,0A2.6,2.6,0,0,1,4.447.763Z" transform="translate(0.972 12.016)"/><path class="al" d="M2.706.465a1.585,1.585,0,1,1-2.242,0A1.584,1.584,0,0,1,2.706.465Z" transform="translate(1.992 5.188)"/><circle class="al" cx="1.022" cy="1.022" r="1.022" transform="translate(2.554 0)"/></g><g transform="translate(0 46.504)"><path class="al" d="M6.105,1.048a3.576,3.576,0,1,0,0,5.058A3.576,3.576,0,0,0,6.105,1.048Z" transform="translate(0 0)"/><path class="al" d="M4.447.763a2.6,2.6,0,1,0,0,3.684A2.6,2.6,0,0,0,4.447.763Z" transform="translate(10.907 0.972)"/><path class="al" d="M2.706.462a1.585,1.585,0,1,0,0,2.242A1.591,1.591,0,0,0,2.706.462Z" transform="translate(19.774 1.994)"/><path class="al" d="M1.747.3a1.022,1.022,0,1,0,0,1.446A1.024,1.024,0,0,0,1.747.3Z" transform="translate(26.088 2.555)"/></g><g transform="translate(71.788 46.264)"><circle class="al" cx="3.577" cy="3.577" r="3.577" transform="translate(20.981 0)"/><circle class="al" cx="2.605" cy="2.605" r="2.605" transform="translate(12.017 0.972)"/><circle class="al" cx="1.585" cy="1.585" r="1.585" transform="translate(5.188 1.992)"/><path class="al" d="M.3,1.744A1.022,1.022,0,1,0,.3.3,1.024,1.024,0,0,0,.3,1.744Z" transform="translate(0 2.556)"/></g><g transform="translate(46.504 0)"><path class="al" d="M1.048,6.105a3.576,3.576,0,1,1,5.058,0A3.576,3.576,0,0,1,1.048,6.105Z" transform="translate(0 0)"/><circle class="al" cx="2.605" cy="2.605" r="2.605" transform="translate(0.972 10.908)"/><path class="al" d="M.465,2.7a1.585,1.585,0,1,1,2.242,0A1.584,1.584,0,0,1,.465,2.7Z" transform="translate(1.991 19.777)"/><circle class="al" cx="1.022" cy="1.022" r="1.022" transform="translate(2.555 26.09)"/></g></g><g transform="translate(43.244 43.469)"><path class="al" d="M1.923,11.2a6.561,6.561,0,1,1,9.278,0A6.556,6.556,0,0,1,1.923,11.2Z" transform="translate(0 0)"/></g></g></g></g><g transform="translate(606.281 373.402) rotate(90)"><path class="am" d="M63.142,229.641H55.929c-20.344,0-38.326-14.535-49.02-36.738-.1-.214-.177-.469-.255-.683a97.685,97.685,0,0,1-3.225-10.634A113.762,113.762,0,0,1,0,155.482V0H119.075V119.034c0,26.431-.916,46.861-3.432,62.553a96.044,96.044,0,0,1-3.225,10.634,7.174,7.174,0,0,1-.252.683C101.472,215.106,83.49,229.641,63.142,229.641Z"/><g transform="translate(41.879 118.223)"><rect class="an" width="22.938" height="22.938" transform="translate(32.44 16.22) rotate(135)"/><rect class="an" width="13.764" height="13.764" transform="translate(25.953 45.451) rotate(135)"/><rect class="an" width="9.059" height="9.059" transform="translate(22.625 66.79) rotate(135)"/></g></g><g class="ao" transform="translate(0 806.849)"><path class="ap" d="M0,97.267H198.678V.038H99.337V0s-.886,0-2.474.109c-2.435.143-6.608.469-11.854,1.3-3.137.5-6.646,1.19-10.412,2.1-3.731.9-7.72,2.024-11.858,3.436A103.45,103.45,0,0,0,52.29,11.1,92.8,92.8,0,0,0,23.742,30.662,81,81,0,0,0,3.137,68.41,110.459,110.459,0,0,0,0,93.035Z" transform="translate(0 0)"/><g transform="translate(55.347 0.001)"><rect class="aq" width="10.197" height="97.266" transform="translate(109.091)"/><rect class="aq" width="10.233" height="97.266" transform="translate(87.251 0)"/><rect class="aq" width="10.233" height="97.266" transform="translate(65.448 0)"/><rect class="aq" width="10.233" height="97.266" transform="translate(43.644 0)"/><path class="aq" d="M0,95.855H10.195V0C7.123.5,3.687,1.19,0,2.1Z" transform="translate(21.842 1.411)"/><path class="aq" d="M0,90.324H10.232V0A100.052,100.052,0,0,0,0,4.157Z" transform="translate(0 6.942)"/></g></g><g class="ao" transform="translate(125.811 682.478)"><path class="ar" d="M0,.013V59.58H60.773A59.374,59.374,0,0,0,43.331,17.45,59.372,59.372,0,0,0,0,.013Z" transform="translate(61.235 0)"/><path class="ar" d="M60.769,59.564V0H0A59.383,59.383,0,0,0,17.438,42.126,59.378,59.378,0,0,0,60.769,59.564Z" transform="translate(0 59.58)"/></g><g transform="translate(-102 5754)"><g transform="translate(6193.44 -5355.439) rotate(-90)"><path class="ar" d="M119,125.882H.009C0,125.349,0,124.844,0,124.381a125.467,125.467,0,0,1,2.4-24.44A123.8,123.8,0,0,1,20.2,56.378,124.937,124.937,0,0,1,72.474,11.238,123.878,123.878,0,0,1,119,0V125.881Z" transform="translate(166 -5765.881)"/><path class="an" d="M119,87.8H38.006c0-.381-.006-.709-.006-1a86.678,86.678,0,0,1,23.531-59.5A87.258,87.258,0,0,1,87.254,8.39,86.232,86.232,0,0,1,119,0V87.8Z" transform="translate(166 -5727.796)"/><path class="c" d="M119,56.631H69V56.5q0-.186,0-.373A56.506,56.506,0,0,1,119,0V56.63Z" transform="translate(166 -5696.63)"/></g><g transform="translate(553.442 -5759.44) rotate(90)"><path class="c" d="M119,0H.009C0,.533,0,1.038,0,1.5a125.466,125.466,0,0,0,2.4,24.44A123.923,123.923,0,0,0,9.284,48.762,124.441,124.441,0,0,0,20.2,69.5a125.422,125.422,0,0,0,14.477,18.2,125.455,125.455,0,0,0,17.581,15.2,124.693,124.693,0,0,0,20.222,11.737,123.866,123.866,0,0,0,22.4,7.812A124.8,124.8,0,0,0,119,125.882V0Z" transform="translate(0 0)"/><path class="an" d="M81,0H.006C0,.382,0,.71,0,1a86.678,86.678,0,0,0,23.531,59.5A87.819,87.819,0,0,0,35.486,71.117a87.224,87.224,0,0,0,13.768,8.291A86.232,86.232,0,0,0,81,87.8V0Z" transform="translate(38 0)"/><path class="ap" d="M50,0H0V.128Q0,.314,0,.5A56.254,56.254,0,0,0,3.855,21.056,56.315,56.315,0,0,0,14.446,38.235,56.387,56.387,0,0,0,50,56.631V0Z" transform="translate(69 0.001)"/></g></g><g transform="translate(449.442 687.56) rotate(90)"><path class="c" d="M119,0H.009C0,.533,0,1.038,0,1.5a125.466,125.466,0,0,0,2.4,24.44A123.923,123.923,0,0,0,9.284,48.762,124.441,124.441,0,0,0,20.2,69.5a125.422,125.422,0,0,0,14.477,18.2,125.455,125.455,0,0,0,17.581,15.2,124.693,124.693,0,0,0,20.222,11.737,123.866,123.866,0,0,0,22.4,7.812A124.8,124.8,0,0,0,119,125.882V0Z" transform="translate(0 0)"/><path class="an" d="M81,0H.006C0,.382,0,.71,0,1a86.678,86.678,0,0,0,23.531,59.5A87.819,87.819,0,0,0,35.486,71.117a87.224,87.224,0,0,0,13.768,8.291A86.232,86.232,0,0,0,81,87.8V0Z" transform="translate(38 0)"/><path class="ap" d="M50,0H0V.128Q0,.314,0,.5A56.254,56.254,0,0,0,3.855,21.056,56.315,56.315,0,0,0,14.446,38.235,56.387,56.387,0,0,0,50,56.631V0Z" transform="translate(69 0.001)"/></g><g transform="translate(199.56 806.56)"><g transform="translate(-1 119.001) rotate(-90)"><path class="ar" d="M119,0H.009C0,.533,0,1.038,0,1.5a125.467,125.467,0,0,0,2.4,24.44A123.924,123.924,0,0,0,9.283,48.762,124.441,124.441,0,0,0,20.2,69.5a125.422,125.422,0,0,0,14.477,18.2,125.455,125.455,0,0,0,17.581,15.2,124.693,124.693,0,0,0,20.222,11.737,123.865,123.865,0,0,0,22.4,7.812A124.8,124.8,0,0,0,119,125.882V0Z" transform="translate(0 0)"/><path class="an" d="M81,0H.006C0,.382,0,.71,0,1a86.678,86.678,0,0,0,23.531,59.5A87.819,87.819,0,0,0,35.486,71.117a87.223,87.223,0,0,0,13.768,8.291A86.232,86.232,0,0,0,81,87.8V0Z" transform="translate(38 0)"/><path class="c" d="M50,0H0V.128Q0,.314,0,.5A56.254,56.254,0,0,0,3.855,21.056,56.315,56.315,0,0,0,14.446,38.235,56.387,56.387,0,0,0,50,56.631V0Z" transform="translate(69 0.001)"/></g></g></g></svg>